<?xml version="1.0" standalone="no"?>
<!DOCTYPE svg PUBLIC "-//W3C//DTD SVG 20010904//EN"
 "http://www.w3.org/TR/2001/REC-SVG-20010904/DTD/svg10.dtd">
<svg version="1.0" xmlns="http://www.w3.org/2000/svg"
 width="512.000000pt" height="512.000000pt" viewBox="0 0 512.000000 512.000000"
 preserveAspectRatio="xMidYMid meet">
<metadata>
Created by potrace 1.13, written by Peter Selinger 2001-2015
</metadata>
<g transform="translate(0.000000,512.000000) scale(0.100000,-0.100000)"
fill="#000000" stroke="none">
<path d="M2292 4745 c-138 -48 -333 -155 -577 -318 -240 -160 -470 -347 -480
-390 -12 -55 -46 -267 -69 -432 -47 -340 -85 -787 -106 -1230 -17 -378 -60
-1825 -54 -1836 2 -4 35 -14 72 -24 l69 -18 17 -53 c36 -115 86 -145 246 -152
l116 -5 92 52 c50 29 224 117 386 196 301 148 439 230 513 307 l42 43 16 180
c9 99 29 301 45 448 41 375 58 589 66 833 l7 211 47 -56 c163 -195 346 -293
595 -321 101 -12 232 -2 341 26 390 97 684 448 780 929 26 126 25 458 0 600
-50 280 -160 491 -324 621 -80 63 -219 130 -337 161 -94 25 -114 27 -325 27
-277 1 -384 -19 -583 -107 -31 -14 -61 -27 -65 -28 -4 0 -14 34 -22 77 l-15
79 -72 13 -72 14 19 39 c11 21 20 44 20 52 0 8 -34 28 -82 47 -114 46 -204 51
-306 15z m95 -447 c-6 -154 -28 -340 -60 -506 -10 -53 -11 -75 -3 -78 6 -2 37
-13 68 -23 l58 -20 50 40 c60 47 149 129 322 296 186 179 286 237 464 268 363
63 612 -64 703 -358 23 -76 25 -96 26 -292 0 -165 -4 -228 -18 -292 -70 -324
-231 -574 -435 -676 -82 -40 -86 -41 -207 -45 -322 -11 -506 116 -546 378 -15
96 -8 146 41 308 22 74 40 148 40 167 0 39 -26 75 -86 116 -52 36 -70 34 -151
-12 -215 -123 -350 -353 -414 -709 -21 -117 -23 -163 -29 -750 -7 -648 -12
-728 -55 -850 -26 -77 -37 -90 -120 -145 -179 -119 -739 -385 -762 -362 -7 7
49 1234 87 1907 32 565 76 1127 96 1222 9 46 156 168 339 283 128 80 556 294
589 295 5 0 6 -68 3 -162z"/>
</g>
</svg>
